<?xml version="1.0" encoding="UTF-8"?>
<svg id="Layer_1" data-name="Layer 1" xmlns="http://www.w3.org/2000/svg" viewBox="0 0 50 50">
  <path d="M13.61,21.1v-1.03c0-1.52.8-2.88,2.02-3.8,3.32-2.49,3.99-7.2,1.5-10.51-.69-.92-1.58-1.67-2.6-2.19-.31-.16-.68-.04-.84.27-.05.09-.07.18-.07.28v4.33c0,1.25-.86,2.42-2.09,2.62-1.37.23-2.66-.7-2.89-2.07-.02-.14-.03-.27-.03-.41v-4.47c0-.34-.28-.62-.63-.62-.1,0-.19.02-.28.07-2.6,1.32-4.2,4.03-4.11,6.94.07,2.34,1.27,4.44,3.06,5.77,1.19.89,1.96,2.21,1.96,3.69v9.81c0,1.48-.78,2.81-1.96,3.69-1.79,1.33-2.98,3.44-3.06,5.77-.09,2.92,1.51,5.62,4.11,6.94.31.15.68.03.84-.28.04-.09.07-.18.07-.28v-4.47c0-1.39,1.12-2.51,2.51-2.51.14,0,.28.01.41.03,1.24.2,2.09,1.36,2.09,2.62v4.33c0,.34.28.62.63.62.1,0,.2-.02.28-.07,3.7-1.88,5.17-6.4,3.29-10.1-.52-1.02-1.27-1.91-2.18-2.6-1.22-.92-2.02-2.28-2.02-3.8v-8.59Z" style="fill: #b4aa12;"/>
  <path d="M22.59-.07c-.66,0-1.19.53-1.19,1.19v47.52c0,.66.53,1.19,1.19,1.19s1.19-.53,1.19-1.19V1.12c0-.66-.53-1.19-1.19-1.19Z" style="fill: #b4aa12;"/>
  <path d="M41.24,20.75h2.52c1.85-.42,3-2.26,2.58-4.11-.36-1.56-1.75-2.67-3.35-2.66h-3.98l-2.2-6.68c-.76-2.29-2.63-3.8-4.72-3.8h-5.94v20.26h16.08l-.99-3.02ZM30.94,9.84s-.02-.05-.03-.08c-.53-.4-.63-1.15-.23-1.68.32-.42.89-.58,1.38-.39.49.19.92.71,1.15,1.4.24.62-.07,1.31-.69,1.54-.62.24-1.31-.07-1.54-.69-.01-.03-.02-.07-.03-.1h0ZM34.71,17.44c-.63.21-1.3-.13-1.51-.76,0,0,0,0,0,0l-1.06-3.21c-.18-.64.2-1.29.83-1.47.59-.16,1.21.15,1.43.72l1.07,3.21c.21.63-.13,1.3-.76,1.51,0,0,0,0,0,0h0Z" style="fill: #b4aa12;"/>
  <path d="M42.83,26.15h-16.68v6.07h2.38c2.19,0,3.97,1.78,3.97,3.97v4.68h10.32c1.98,0,3.58-1.6,3.59-3.58v-7.56c0-1.98-1.61-3.59-3.59-3.59ZM38.27,37.33c-2.15,0-3.9-1.75-3.9-3.9,0-2.15,1.75-3.9,3.9-3.9,2.15,0,3.9,1.75,3.9,3.9,0,2.15-1.75,3.9-3.9,3.9h0Z" style="fill: #b4aa12;"/>
  <path d="M28.54,34.62h-2.38v6.26h3.97v-4.68c0-.87-.71-1.58-1.58-1.58Z" style="fill: #b4aa12;"/>
  <path d="M36.85,45.07c0,.66.54,1.2,1.2,1.2h3.08c.66,0,1.2-.54,1.2-1.2v-1.81h-5.48v1.81Z" style="fill: #b4aa12;"/>
</svg>