<?xml version="1.0" encoding="UTF-8"?>
<svg id="Layer_1" data-name="Layer 1" xmlns="http://www.w3.org/2000/svg" viewBox="0 0 50 50">
  <path d="M27.98,3.99c1.61.44,3.14,1.08,4.55,1.89l3.42-2.17,6.02,6.02-1.92,3.02c-1.62-1.88-4.98-1.81-6.47.25l-.59.81c-2.49-2.8-6.12-4.56-10.16-4.56-7.5,0-13.59,6.08-13.59,13.59,0,8.94,8.47,15.38,17.03,13.15.91,1.12,2.34,1.8,3.8,1.56h.08s0,3.41,0,3.41c-.71.29-1.43.53-2.18.73l-.88,3.94h-8.51l-.88-3.95c-1.61-.44-3.14-1.08-4.55-1.89l-3.42,2.17-6.02-6.02,2.16-3.42c-.81-1.42-1.45-2.94-1.89-4.55L.04,27.09v-8.51l3.94-.88c.44-1.61,1.08-3.14,1.89-4.55l-2.17-3.42,6.02-6.02,3.42,2.17c1.42-.81,2.94-1.45,4.55-1.89L18.58.04h8.51l.88,3.95ZM32.98,16.5l-3.15-.51c-1.55-.25-3.17,1.37-2.92,2.92l.51,3.15-2.59,1.87c-1.28.92-1.28,3.21,0,4.13l2.59,1.87-.51,3.15c-.25,1.55,1.37,3.17,2.92,2.92l3.15-.51,1.87,2.59c.92,1.28,3.21,1.28,4.13,0l1.87-2.59,3.15.51c1.55.25,3.17-1.37,2.92-2.92l-.51-3.15,2.59-1.87c1.28-.92,1.28-3.21,0-4.13l-2.59-1.87.51-3.15c.25-1.55-1.37-3.17-2.92-2.92l-3.15.51-1.87-2.59c-.92-1.28-3.21-1.28-4.13,0l-1.87,2.59ZM42.11,37.28l-.56-.09-1.3,1.81c-1.54,2.14-5.12,2.14-6.66,0l-1.3-1.81-.56.09v12.67l5.2-5.25,5.2,5.25v-12.67ZM36.91,18.92c-3.91,0-7.08,3.17-7.08,7.08s3.17,7.08,7.08,7.08,7.08-3.17,7.08-7.08-3.17-7.08-7.08-7.08ZM37.06,22.52c-.05-.14-.25-.14-.3,0l-.78,2.41c-.02.07-.08.11-.15.11h-2.53c-.15,0-.21.19-.09.28l2.05,1.48c.06.04.08.11.06.18l-.79,2.4c-.05.14.12.26.24.17l2.04-1.49c.06-.04.13-.04.18,0l2.04,1.49c.12.09.29-.03.24-.17l-.79-2.4c-.02-.07,0-.13.06-.18l2.05-1.48c.12-.09.06-.28-.09-.28h-2.53c-.07,0-.13-.04-.15-.1l-.78-2.41Z" style="fill: #b4aa12; fill-rule: evenodd;"/>
</svg>