<?xml version="1.0" encoding="UTF-8"?>
<svg id="Layer_1" data-name="Layer 1" xmlns="http://www.w3.org/2000/svg" viewBox="0 0 50 50">
  <g id="Phone_Call" data-name="Phone Call">
    <path d="M41.99,41.04c-.13-1.32-.84-2.5-1.94-3.24l-7.48-4.99c-1.75-1.16-4.08-.93-5.57.55l-2.39,2.41c-.54.19-3.06-.88-6.3-4.12-3.24-3.24-4.29-5.74-4.16-6.23l2.45-2.45c1.48-1.48,1.71-3.82.55-5.57l-4.99-7.48c-.74-1.1-1.92-1.81-3.24-1.94-1.32-.13-2.61.33-3.55,1.27l-3.7,3.7c-5.07,5.07,1.53,16.22,10.33,25.01,5.98,5.98,19.06,16.28,25.01,10.33l3.7-3.7c.94-.94,1.4-2.23,1.27-3.55h0Z" style="fill: #b4aa12;"/>
    <path d="M28.04-.09c-.81,0-1.47.66-1.47,1.47s.66,1.47,1.47,1.47c10.54,0,19.11,8.57,19.11,19.11,0,.81.66,1.47,1.47,1.47s1.47-.66,1.47-1.47C50.09,9.8,40.2-.09,28.04-.09ZM28.04,5.79c-.81,0-1.47.66-1.47,1.47s.66,1.47,1.47,1.47c7.3,0,13.23,5.93,13.23,13.23,0,.81.66,1.47,1.47,1.47s1.47-.66,1.47-1.47c0-8.92-7.25-16.17-16.17-16.17ZM28.04,11.67c-.81,0-1.47.66-1.47,1.47s.66,1.47,1.47,1.47c4.05,0,7.35,3.3,7.35,7.35,0,.81.66,1.47,1.47,1.47s1.47-.66,1.47-1.47c0-5.67-4.62-10.29-10.29-10.29ZM28.04,17.55c-.81,0-1.47.66-1.47,1.47s.66,1.47,1.47,1.47,1.47.66,1.47,1.47.66,1.47,1.47,1.47,1.47-.66,1.47-1.47c0-2.43-1.98-4.41-4.41-4.41Z" style="fill: #b4aa12;"/>
  </g>
</svg>