<?xml version="1.0" encoding="UTF-8"?>
<svg id="Layer_1" data-name="Layer 1" xmlns="http://www.w3.org/2000/svg" viewBox="0 0 50 50">
  <path d="M49.74,17.46l.12.94v26.97c-.31,2.59-2.35,4.6-4.94,4.83H5.07c-2.63-.24-4.7-2.31-4.94-4.94.4-8.82-.52-18.1,0-26.87.02-.32.1-.62.12-.94l21.54,18.13c1.91,1.32,4,1.44,6.02.27l21.94-18.4Z" style="fill: #b4aa12;"/>
  <path d="M41.22,20.15l-15.21,12.82c-.6.38-1.32.39-1.95.05l-15.28-12.87-.03-15.04C8.99,2.47,11.03.39,13.66.09h22.56c2.6.23,4.66,2.22,5,4.81v15.25ZM17.41,9.14c-1.97.49-1.9,3.18.1,3.57h14.88c2.13-.29,2.21-3.17.1-3.59l-15.08.02ZM17.41,16.36c-1.97.49-1.9,3.18.1,3.57h14.88c2.13-.29,2.21-3.17.1-3.59l-15.08.02Z" style="fill: #b4aa12;"/>
  <polygon points="5.14 12.05 5.14 17.01 1.76 14.3 2.17 13.87 5.14 12.05" style="fill: #b4aa12;"/>
  <polygon points="44.85 17.01 44.85 12.05 48.12 14.15 44.85 17.01" style="fill: #b4aa12;"/>
</svg>