<?xml version="1.0" encoding="UTF-8"?>
<svg id="Layer_1" data-name="Layer 1" xmlns="http://www.w3.org/2000/svg" viewBox="0 0 50 50">
  <path d="M9.12,35.41h31.63c.63.09,1,.39,1.15,1.02l-.02,6.39c-.12.41-.36.68-.76.81l-32.3.02c-.47-.13-.75-.45-.86-.92.16-1.95-.24-4.31,0-6.21.08-.64.53-1.04,1.16-1.11Z" style="fill: #b4aa12;"/>
  <path d="M22.17,21.57h5.53v-7.75c0-.66.99-.96,1.53-.94,3.35.07,5.37,3.08,5.58,6.17.28,4.22-.51,8.48-5.01,10-.56.19-1.19.24-1.7.47v5.08h-6.32v-5.08l-.17-.13c-3.16-.33-5.86-2.9-6.42-6.02-.72-4.04.08-10.17,5.25-10.48.58-.04,1.73.18,1.73.94v7.75Z" style="fill: #b4aa12;"/>
  <path d="M6.77,39.73v3.21c0,.29.44.99.64,1.23l5.77,5.82H.9c-.44,0-1.05-.96-.82-1.41l2.11-3.67c0-.26-1.6-2.63-1.85-3.14-.29-.58-.47-.94-.03-1.54.13-.17.59-.5.78-.5h5.67Z" style="fill: #b4aa12;"/>
  <path d="M36.67,49.99l5.77-5.82c.2-.25.64-.94.64-1.23v-3.21h5.67c.19,0,.65.33.78.5.44.59.26.96-.03,1.54-.25.51-1.85,2.88-1.85,3.14l2.11,3.67c.23.45-.38,1.41-.82,1.41h-12.29Z" style="fill: #b4aa12;"/>
  <g>
    <path d="M24.81.01c.12-.02.21-.01.33.02.46.15,1.18,2.31,1.58,2.77.8.31,2.15.18,2.88.47,1.35.55-1.44,2.4-1.79,2.91-.12.48.51,2.29.47,2.93-.02.25-.22.49-.46.53-.53.1-2.24-1.15-2.85-1.34-.25-.02-2.1,1.18-2.6,1.32-.29.08-.59,0-.72-.28-.22-.48.45-2.5.41-3.16-.05-.19-1.62-1.46-1.91-1.85-1.15-1.53,2.27-1.15,3.01-1.54.3-.2.96-2.12,1.3-2.55.1-.12.2-.22.36-.24Z" style="fill: #b4aa12;"/>
    <path d="M41.14,11.37c-.36.74-.55,1.97-.97,2.63-.83,1.31-2.01-1.71-2.43-2.24-.69-.35-3.3.29-3.43-.67-.08-.57,1.64-2.03,1.88-2.66-.06-.83-.61-1.78-.68-2.57-.16-1.84,2.54.14,3.38.24.41-.07,1.88-1.45,2.43-1.62.24-.07.47-.04.64.16.38.44-.12,2.53-.03,3.18.1.32,1.9,1.37,2.21,1.84.86,1.3-2.3,1.27-2.99,1.71Z" style="fill: #b4aa12;"/>
    <path d="M12.12,11.76c-.43.57-.96,1.91-1.45,2.35-1.14,1.04-1.58-2.11-1.95-2.74-.17-.19-2.33-.55-2.76-.74-1.57-.69,1.83-2.32,1.98-2.8l-.19-2.65c.09-1.89,2.52.65,3.23.92,1-.3,1.99-.94,3.02-1.05.1.03.28.19.32.28.28.63-.63,2.36-.64,3.1.06.43,1.55,1.72,1.79,2.27.07.17.15.29.07.48-.24.84-2.73.24-3.41.59Z" style="fill: #b4aa12;"/>
  </g>
  <path d="M16.64,44.86v4.29s-.24.44-.29.5c-.4.42-1.15.47-1.61.13-1.33-1.54-3.45-3.05-4.66-4.62-.08-.1-.19-.12-.15-.3h6.71Z" style="fill: #b4aa12;"/>
  <path d="M39.93,44.86c.04.17-.07.2-.15.3-1.21,1.57-3.33,3.08-4.66,4.62-.46.34-1.22.29-1.61-.13-.05-.05-.29-.47-.29-.5v-4.29h6.71Z" style="fill: #b4aa12;"/>
</svg>