<?xml version="1.0" encoding="UTF-8"?>
<svg id="Layer_1" data-name="Layer 1" xmlns="http://www.w3.org/2000/svg" viewBox="0 0 50 50">
  <rect x="20.85" y="3.97" width="9" height="1.91" style="fill: #b4aa12;"/>
  <path d="M29.59,29.55l-4.24,5.92-4.24-5.92c-.28-.39-1.2-.25-1.63-.25v10.8h11.61v-10.8c-.42,0-1.23-.14-1.5.25Z" style="fill: #b4aa12;"/>
  <path d="M15.66,18.66c1.45,4.47,5.04,9.16,9.69,9.16h0c4.65,0,8.25-4.7,9.69-9.16,1.43-.61,2.44-2.1,2.44-3.67,0-1.96-1.66-3.83-2.47-3.83H15.69l-.31.09c-2.92,1.65-2.9,6.06.28,7.42ZM15.54,12.56s0,0,0,0h0s0,0,0,0c3.97,5.71,2.16,2.78,9.79,2.78s5.92,2.91,9.81-2.8c1.91,1.57,1.33,4.43-.75,5.11-.18.06-.32.2-.38.39-1.26,4.15-4.51,8.61-8.65,8.61s-7.39-4.46-8.65-8.61c-.06-.18-.2-.33-.38-.39-2.18-.71-2.56-3.64-.78-5.09Z" style="fill: #b4aa12;"/>
  <path d="M34.97,9.98c.17,0,.33.02.49.07l-.5-4.22c-.94-7.86-18.25-8.01-19.2,0l-.5,4.21h0c.14-.04.29-.06.44-.06h19.28ZM19.68,3.38c0-.32.26-.59.59-.59h10.17c.32,0,.59.26.59.59v3.09c0,.33-.26.59-.59.59h0s-10.17,0-10.17,0c-.32,0-.59-.26-.59-.59v-3.09Z" style="fill: #b4aa12;"/>
  <path d="M15.32,29.71v8.76c.89-.61,2.09-.61,2.99,0v-9.17c-1.02,0-2.02.14-2.99.41h0Z" style="fill: #b4aa12;"/>
  <path d="M38.51,45.67v4.46h7.88c.33,0,.59-.26.59-.59,0-1.32-.1-2.62-.28-3.87h-8.19Z" style="fill: #b4aa12;"/>
  <path d="M3.61,49.54c0,.32.26.59.59.59h7.87v-4.46h0s-8.19,0-8.19,0c-.18,1.25-.27,2.55-.27,3.87Z" style="fill: #b4aa12;"/>
  <path d="M34.36,43.3v6.83h2.98v-8.85h-.96c-.23,1-1.02,1.79-2.02,2.02Z" style="fill: #b4aa12;"/>
  <path d="M31.16,41.28h-11.74c-.22.99-1.04,1.79-2.02,2.02v6.83h15.78v-6.83c-.99-.23-1.79-1.02-2.02-2.02Z" style="fill: #b4aa12;"/>
  <path d="M34.83,29.6c-.83-.2-1.69-.3-2.56-.3v9.18c.87-.62,2.11-.59,2.99,0v-7.5c.3.11.7.23,1.18.43v8.7c.93,0,2.07-.21,2.07.59v3.8h8c-.84-4.51-2.78-8.42-5.41-11.14l-6.27-3.75Z" style="fill: #b4aa12;"/>
  <path d="M35.26,40.68c0-1.92-2.98-1.99-2.99,0-.01,1.96,2.99,1.98,2.99,0Z" style="fill: #b4aa12;"/>
  <path d="M14.14,30.12c-.22.09-.43.18-.64.28l-1.04.56c-4.11,2.46-7.25,7.44-8.39,13.53h8v-3.8c0-.8,1.14-.59,2.07-.59v-9.99Z" style="fill: #b4aa12;"/>
  <path d="M14.21,41.28h-.96v8.85h2.98s0-6.83,0-6.83c-.99-.22-1.79-1.02-2.02-2.02Z" style="fill: #b4aa12;"/>
  <path d="M18.31,40.69h0c0-.7-.51-1.3-1.17-1.45-1.08-.25-2.03.81-1.77,1.83.45,1.76,2.94,1.29,2.94-.38Z" style="fill: #b4aa12;"/>
</svg>