<?xml version="1.0" encoding="UTF-8"?>
<svg id="Layer_1" data-name="Layer 1" xmlns="http://www.w3.org/2000/svg" viewBox="0 0 50 50">
  <path d="M49.93,49.9v.1h-29.09s-4.85-7.26-4.85-7.26l.24-.16c3.04-.92,6-2.21,9.08-2.93l22.44,4.39,2.19,5.86Z" style="fill: #b4aa12;"/>
  <path d="M23.92-.03c6.33-.5,12.41,3.64,13.93,9.85,1.15,4.68-.3,8.46-2.53,12.49-2.75,4.97-6.52,9.43-10.31,13.64-.13.03-.17-.08-.25-.15-.27-.26-.69-.76-.97-1.07-4.41-4.84-11.72-14.17-12.13-20.82C11.22,6.68,16.75.54,23.92-.03ZM24.43,5.5c-8.31.62-7.66,13.66,1.3,12.86,8.04-.72,7.27-13.5-1.3-12.86Z" style="fill: #b4aa12;"/>
  <polygon points="17.26 50 0 50 6.04 33.13 17.26 50" style="fill: #b4aa12;"/>
  <polygon points="46.61 40.83 27.89 37.08 32.63 31.48 43.23 31.48 46.61 40.83" style="fill: #b4aa12;"/>
  <polygon points="17.31 31.47 22.03 37.08 22.23 37.51 14.29 40.13 8.38 31.47 17.31 31.47" style="fill: #b4aa12;"/>
  <path d="M24.74,8.57c4.84-.34,4.82,7.53-.52,6.7-3.54-.55-3.58-6.41.52-6.7Z" style="fill: #b4aa12;"/>
</svg>