<?xml version="1.0" encoding="UTF-8"?>
<svg id="Layer_1" data-name="Layer 1" xmlns="http://www.w3.org/2000/svg" viewBox="0 0 50 50">
  <path d="M2.62,15.04C.25,12.67-.49,9.28.42,6.29l5.64,5.64,4.63-1.24,1.24-4.63L6.29.41c3-.9,6.41-.14,8.75,2.2,2.34,2.34,3.06,5.58,2.27,8.52l7.44,7.44-6.18,6.18-7.44-7.44c-2.94.8-6.21.04-8.52-2.27h0Z" style="fill: #b4aa12; fill-rule: evenodd;"/>
  <path d="M43.95,38.07l5.64,5.64c.9-3,.14-6.41-2.2-8.75s-5.58-3.06-8.52-2.27l-7.44-7.44-6.18,6.18,7.44,7.44c-.8,2.94-.04,6.21,2.27,8.52,2.37,2.37,5.75,3.1,8.75,2.2l-5.64-5.64,1.24-4.63,4.63-1.24h0Z" style="fill: #b4aa12; fill-rule: evenodd;"/>
  <polygon points="22.37 31.05 40.43 12.99 42.58 12.41 48.98 3.78 46.23 1.03 37.6 7.43 37.02 9.58 18.96 27.64 22.37 31.05" style="fill: #b4aa12; fill-rule: evenodd;"/>
  <path d="M15.24,29.35c-.56.44-1.35.9-2.44,1.38-1.53.67-2.73,1.49-3.91,2.67l-6.27,6.27c-2.12,2.12-2.12,5.59,0,7.71,2.12,2.12,5.59,2.12,7.71,0l6.27-6.27c1.18-1.18,2-2.38,2.67-3.91.48-1.09.94-1.88,1.38-2.44.59-.76.53-1.83-.15-2.51l-2.74-2.74c-.68-.68-1.75-.75-2.51-.15h0Z" style="fill: #b4aa12; fill-rule: evenodd;"/>
</svg>