<?xml version="1.0" encoding="UTF-8"?>
<svg id="Layer_1" data-name="Layer 1" xmlns="http://www.w3.org/2000/svg" viewBox="0 0 50 50">
  <path d="M24.98.09h3.38l1.59,4.14c2.21.52,4.31,1.4,6.24,2.59l4.06-1.8,4.78,4.78-1.8,4.06c1.19,1.93,2.06,4.04,2.59,6.24l4.14,1.59v6.76l-4.14,1.59c-.52,2.21-1.4,4.31-2.59,6.24l1.8,4.06-4.78,4.78-4.06-1.8c-1.93,1.19-4.04,2.06-6.24,2.59l-1.59,4.14h-3.38v-12.16c7.08,0,12.82-5.74,12.82-12.82s-5.74-12.82-12.82-12.82V.09Z" style="fill: #b4aa12; fill-rule: evenodd;"/>
  <g>
    <path d="M22.91,23.31h-1.32v.23c0,.9-.3,1.73-.82,2.39h2.13c.72,0,1.31-.59,1.31-1.31,0-.72-.6-1.31-1.31-1.31Z" style="fill: #b4aa12; fill-rule: evenodd;"/>
    <path d="M21.99,18.95h-.4c.03.86,0,1.76,0,2.62h.4c.72,0,1.31-.59,1.31-1.31,0-.72-.59-1.31-1.31-1.31Z" style="fill: #b4aa12; fill-rule: evenodd;"/>
    <g>
      <path d="M19.56,31.62h-3.31c-.67,0-1.23.56-1.23,1.23s.56,1.23,1.23,1.23h3.31c.67,0,1.23-.56,1.23-1.23,0-.67-.56-1.23-1.23-1.23h0Z" style="fill: #b4aa12; fill-rule: evenodd;"/>
      <path d="M20.78,27.52h-4.54c-.67,0-1.23.56-1.23,1.23s.56,1.23,1.23,1.23c0,0,4.54,0,4.54,0,.67,0,1.23-.56,1.23-1.23,0-.67-.56-1.23-1.23-1.23h0Z" style="fill: #b4aa12; fill-rule: evenodd;"/>
      <path d="M15.18,36.96c-2.04.86-3.47,2.87-3.47,5.22,0,2.21,1.26,4.12,3.1,5.05v-5.69l2.56-1.48,2.56,1.48v5.69c1.84-.93,3.1-2.84,3.1-5.05,0-2.35-1.43-4.36-3.47-5.22v-1.23h-3.32c-.38,0-.73-.08-1.06-.21v1.44Z" style="fill: #b4aa12; fill-rule: evenodd;"/>
      <path d="M5.34,19.95s.09,0,.14,0c2.89-.18,3.18-4.86,7.72-4.56l2.93.2c1.98.13,3.21,2.09,3.21,3.94v4.11c0,1.12-.92,2.04-2.04,2.04s-2.04-.92-2.04-2.04v-4.43c0-.45-.37-.82-.82-.82s-.82.37-.82.82v1.15c0,3.75-2.19,3.74-3.88,3.74h-.18c-.45,0-.82.37-.82.82s.37.82.82.82h.18c.93,0,1.96,0,2.88-.3.14.48.39.91.73,1.25.16.16.35.31.54.43-.33.47-.52,1.03-.52,1.65,0,.78.31,1.5.86,2.05-.55.55-.87,1.27-.87,2.05,0,.53.15,1.05.43,1.51-3.67.6-6.03.69-8.46-1.65v-12.76h0Z" style="fill: #b4aa12; fill-rule: evenodd;"/>
      <path d="M17.37,2.77c-2.71,0-4.91,2.2-4.91,4.91,0,1.93,1.11,3.59,2.72,4.4v1.79l1.06.07c1.36.09,2.5.74,3.32,1.69v-3.56c1.61-.81,2.72-2.47,2.72-4.4,0-2.71-2.2-4.91-4.91-4.91ZM19.65,9l-2.28,1.32-2.28-1.32v-2.63l2.28-1.32,2.28,1.32v2.63Z" style="fill: #b4aa12; fill-rule: evenodd;"/>
      <path d="M3.95,19.95H-.07v12.76H3.95v-12.76ZM1.94,23.13c-.49,0-.88-.39-.88-.88s.39-.88.88-.88.88.39.88.88-.39.88-.88.88Z" style="fill: #b4aa12; fill-rule: evenodd;"/>
    </g>
  </g>
</svg>