<?xml version="1.0" encoding="UTF-8"?>
<svg id="Layer_1" data-name="Layer 1" xmlns="http://www.w3.org/2000/svg" viewBox="0 0 50 50">
  <path d="M18,4.77c-.8.23-1.38.96-1.38,1.83v1.33h-3.9v-1.33c0-3.02,2.29-5.5,5.24-5.82-.09.29-.13.59-.13.9v2.05c0,.36.06.7.16,1.03ZM32.05.78c.09.29.13.59.13.9v2.05c0,.36-.06.7-.16,1.03.8.23,1.38.96,1.38,1.83v1.33h3.9v-1.33c0-3.02-2.29-5.5-5.24-5.82ZM30.75,3.73V1.68c0-1.1-.89-1.99-1.99-1.99h-7.5c-1.1,0-1.99.89-1.99,1.99v2.04c0,1.1.89,1.99,1.99,1.99h7.5c1.1,0,1.99-.89,1.99-1.99ZM47.36,26l-15.32,6.71c-.39.17-.77.33-1.16.46v2.95c0,1.81-1.48,3.27-3.28,3.27h-5.19c-1.81,0-3.28-1.46-3.28-3.27v-2.95c-.39-.13-.77-.29-1.16-.46l-15.32-6.71c-.6-.26-1.16-.6-1.66-1.02v20c0,2.68,2.16,4.84,4.84,4.84h38.34c2.67,0,4.83-2.16,4.83-4.84v-19.98c-.49.4-1.05.75-1.65,1ZM46.75,9.37H3.26C1.42,9.37-.07,10.86-.07,12.69v6.96c0,2.18,1.29,4.16,3.3,5.03l15.32,6.72c.2.09.39.17.59.24v-2.48c0-1.81,1.48-3.27,3.28-3.27h5.19c1.81,0,3.28,1.46,3.28,3.27v2.48c.2-.07.39-.16.59-.24l15.32-6.72c2.01-.87,3.3-2.85,3.3-5.03v-6.96c0-1.83-1.49-3.32-3.34-3.32ZM29.45,36.11v-6.94c0-1.02-.82-1.84-1.84-1.84h-5.2c-1.02,0-1.84.82-1.84,1.84v6.94c0,1.02.82,1.84,1.84,1.84h5.2c1.02,0,1.84-.82,1.84-1.84Z" style="fill: #b4aa12;"/>
</svg>